<svg viewBox="0 0 122 24" fill="none" xmlns="http://www.w3.org/2000/svg">
    <path
            d="M0 23.7343H5.84501V16.6494H15.6162V12.1328H0V23.7343ZM0 3.07007V7.58667H15.6162V3.07007H0Z"
            fill="#34BD63"
    />
    <path d="M18.9691 3.07007V23.7343H24.8141V3.07007H18.9691Z" fill="#34BD63"/>
    <path d="M33.4 7.70476V23.7343H39.245V7.70476H45.5623V3.07007H27.0531V7.70476H33.4Z" fill="#34BD63"/>
    <path
            d="M47.7399 23.7343H53.5849V16.6494H63.3561V12.1328H47.7399V23.7343ZM47.7399 3.07007V7.58667H63.3561V3.07007H47.7399Z"
            fill="#EFEFEF"
    />
    <path
            d="M69.4922 22.9373C70.8501 23.6458 72.4147 24 74.1269 24C75.839 24 77.4036 23.6458 78.7911 22.9373C80.149 22.2288 81.2412 21.2546 82.0088 19.9852C82.7763 18.7454 83.1601 17.2989 83.1601 15.7048C83.1601 14.1107 82.7763 12.6937 82.0088 11.4539C81.2412 10.214 80.149 9.23985 78.7911 8.53136C77.4036 7.82287 75.839 7.46863 74.1269 7.46863C72.3852 7.46863 70.8206 7.82287 69.4626 8.53136C68.1047 9.23985 67.0125 10.214 66.2449 11.4539C65.4774 12.7232 65.0936 14.1402 65.0936 15.7048C65.0936 17.2989 65.4774 18.7454 66.2449 19.9852C67.0125 21.2546 68.1047 22.2288 69.4922 22.9373ZM76.5475 18.5387C75.8981 19.2177 75.101 19.5424 74.1269 19.5424C73.1232 19.5424 72.3261 19.2177 71.7062 18.5387C71.0567 17.8598 70.7615 16.9151 70.7615 15.7048C70.7615 14.524 71.0567 13.6089 71.7062 12.9299C72.3261 12.2804 73.1232 11.9262 74.1269 11.9262C75.101 11.9262 75.8981 12.2804 76.5475 12.9299C77.1674 13.6089 77.4922 14.524 77.4922 15.7048C77.4922 16.9151 77.1674 17.8598 76.5475 18.5387Z"
            fill="#EFEFEF"
    />
    <path d="M85.7583 1.83026V23.7343H91.3672V1.83026H85.7583Z" fill="#EFEFEF"/>
    <path
            d="M94.9835 7.73432V23.7343H100.592V7.73432H94.9835ZM95.3082 5.10701C95.9281 5.69742 96.7547 5.9631 97.7879 5.9631C98.7916 5.9631 99.6181 5.69742 100.268 5.10701C100.888 4.51661 101.212 3.7786 101.212 2.89299C101.212 2.06642 100.888 1.35793 100.268 0.826568C99.6181 0.295202 98.7916 0 97.7879 0C96.7547 0 95.9281 0.295203 95.3082 0.856089C94.6587 1.4465 94.3635 2.15498 94.3635 2.98155C94.3635 3.83764 94.6587 4.54613 95.3082 5.10701Z"
            fill="#EFEFEF"
    />
    <path
            d="M107.603 22.9373C108.961 23.6458 110.526 24 112.238 24C113.95 24 115.515 23.6458 116.902 22.9373C118.26 22.2288 119.352 21.2546 120.12 19.9852C120.887 18.7454 121.271 17.2989 121.271 15.7048C121.271 14.1107 120.887 12.6937 120.12 11.4539C119.352 10.214 118.26 9.23985 116.902 8.53136C115.515 7.82287 113.95 7.46863 112.238 7.46863C110.496 7.46863 108.932 7.82287 107.574 8.53136C106.216 9.23985 105.124 10.214 104.356 11.4539C103.589 12.7232 103.205 14.1402 103.205 15.7048C103.205 17.2989 103.589 18.7454 104.356 19.9852C105.124 21.2546 106.216 22.2288 107.603 22.9373ZM114.659 18.5387C114.009 19.2177 113.212 19.5424 112.238 19.5424C111.234 19.5424 110.437 19.2177 109.817 18.5387C109.168 17.8598 108.873 16.9151 108.873 15.7048C108.873 14.524 109.168 13.6089 109.817 12.9299C110.437 12.2804 111.234 11.9262 112.238 11.9262C113.212 11.9262 114.009 12.2804 114.659 12.9299C115.279 13.6089 115.603 14.524 115.603 15.7048C115.603 16.9151 115.279 17.8598 114.659 18.5387Z"
            fill="#EFEFEF"
    />
</svg>